<?xml version="1.0" standalone="no"?>
<svg xmlns="http://www.w3.org/2000/svg" version="1.1" xmlns:xlink="http://www.w3.org/1999/xlink" width="512" height="512" x="0" y="0" viewBox="0 0 100 100" style="enable-background:new 0 0 512 512" xml:space="preserve" class=""><g><path d="M65.156 4.42c-8.327 0-15.13 6.855-15.13 15.202s6.803 15.165 15.13 15.165c7.017 0 12.924-4.863 14.626-11.382h13.843a3.798 3.798 0 0 0 3.791-3.805 3.798 3.798 0 0 0-3.79-3.8H79.766C78.053 9.294 72.16 4.42 65.156 4.42zM6.391 15.8a3.798 3.798 0 0 0-3.79 3.805 3.798 3.798 0 0 0 3.79 3.8h36.397c-.21-1.234-.348-2.493-.348-3.783 0-1.304.134-2.575.348-3.821zm28.47 18.987c-7.018 0-12.92 4.89-14.619 11.418H6.392a3.783 3.783 0 0 0-.363 0 3.801 3.801 0 0 0-3.52 4.062 3.798 3.798 0 0 0 3.882 3.535H20.25c1.71 6.511 7.604 11.382 14.61 11.382 8.328 0 15.167-6.848 15.167-15.195 0-8.347-6.84-15.202-15.166-15.202zm22.383 11.418c.21 1.234.347 2.494.347 3.784 0 1.3-.134 2.57-.347 3.813h36.381a3.795 3.795 0 0 0 3.874-3.714 3.796 3.796 0 0 0-3.874-3.883H57.244zm7.912 18.979c-8.327 0-15.13 6.855-15.13 15.202S56.83 95.58 65.157 95.58c7.007 0 12.907-4.87 14.618-11.382h13.851a3.796 3.796 0 0 0 3.706-3.883 3.795 3.795 0 0 0-3.706-3.714H79.782c-1.701-6.527-7.608-11.418-14.626-11.418zM6.029 76.602a3.801 3.801 0 0 0-3.52 4.062 3.798 3.798 0 0 0 3.882 3.535h36.412a22.541 22.541 0 0 1-.348-3.813c0-1.29.138-2.55.348-3.784H6.39a3.783 3.783 0 0 0-.362 0z" fill="#ffffff" opacity="1" data-original="#000000" class=""/></g></svg>