<?xml version="1.0" standalone="no"?>
<svg xmlns="http://www.w3.org/2000/svg" version="1.1" xmlns:xlink="http://www.w3.org/1999/xlink" width="512" height="512" x="0" y="0" viewBox="0 0 68 62" style="enable-background:new 0 0 512 512" xml:space="preserve" class=""><g><path fill="#ffffff" fill-rule="nonzero" d="M49 38v9a2 2 0 0 0 2.743 1.857L56 47.154l4.257 1.703A2 2 0 0 0 63 47v-9h3a2 2 0 0 1 2 2v20a2 2 0 0 1-2 2H46a2 2 0 0 1-2-2V40a2 2 0 0 1 2-2zm4 0h6v6.046l-2.257-.903a2 2 0 0 0-1.486 0L53 44.046zm-6-4v-4a2 2 0 0 0-2-2H11a2 2 0 0 0-2 2v24H6a6 6 0 0 1-6-6V19.354a6 6 0 0 1 3.086-5.245L26.01 1.374a6 6 0 0 1 6.001.1L53.087 14.12A6 6 0 0 1 56 19.265V34zM23 20h10a2 2 0 0 0 0-4H23a2 2 0 0 0 0 4zM13 54V32h30v2.803A5.998 5.998 0 0 0 40 40v14z" opacity="1" data-original="#000000" class=""/></g></svg>