<?xml version="1.0" standalone="no"?>
<svg xmlns="http://www.w3.org/2000/svg" version="1.1" xmlns:xlink="http://www.w3.org/1999/xlink" width="512" height="512" x="0" y="0" viewBox="0 0 512 512" style="enable-background:new 0 0 512 512" xml:space="preserve" class=""><g><path d="M482 0v105h-45V15h-45v42.499h-30V15h-45v90h-45V0h-30v105h-47V15h-45v42.499h-30V15H75v90H30V0H0v512h30v-47h212v47h30v-47h210v47h30V0zM242 435h-47v-90h-45v42.499h-30V345H75v90H30V300h212zm0-165h-47v-90h-45v42.499h-30V180H75v90H30V135h212zm30-135h210v135h-45v-90h-45v42.499h-30V180h-45v90h-45zm165 300v-90h-45v42.499h-30V345h-45v90h-45V300h210v135z" fill="#ffffff" opacity="1" data-original="#000000" class=""/></g></svg>